<svg xmlns="http://www.w3.org/2000/svg" xmlns:xlink="http://www.w3.org/1999/xlink" viewBox="0 0 282.24 57.44"><defs><clipPath id="a" transform="translate(240 300)"><rect x="-240" y="-300" width="282.24" height="57.44" style="fill:none"/></clipPath></defs><title>logo-dark</title><g style="clip-path:url(#a)"><path d="M-43.49-251.45a.18.18,0,0,1,.18-.14h2a.24.24,0,0,1,.25.13l2.27,5.08h.06l3.35-5.08a.31.31,0,0,1,.28-.13h1.92c.1,0,.16.05.15.13l-1,8.63a.16.16,0,0,1-.18.13h-1.86c-.1,0-.16-.06-.15-.13l.56-5h-.07l-2.49,3.76a.36.36,0,0,1-.33.17h-1.14a.28.28,0,0,1-.29-.17l-1.65-3.75h-.07l-.56,5a.16.16,0,0,1-.18.13H-44.3c-.1,0-.16-.05-.15-.13Z" transform="translate(240 300)" style="fill:#231f20"/><path d="M-23.65-245.25a5.34,5.34,0,0,0,.4-1.91,5.29,5.29,0,0,0,0-1.91c-.18-.61-.73-1-1.65-1a2,2,0,0,0-1.88,1,5.68,5.68,0,0,0-.39,1.91,5,5,0,0,0,0,1.91c.18.61.73,1,1.65,1a1.94,1.94,0,0,0,1.87-1m-5.9.53a5.56,5.56,0,0,1,0-2.43,6.31,6.31,0,0,1,.58-2.43c.74-1.44,2.37-2.17,4.33-2.17s3.42.72,3.84,2.16a5.72,5.72,0,0,1,0,2.43,6.2,6.2,0,0,1-.59,2.44c-.73,1.44-2.36,2.16-4.32,2.16s-3.42-.72-3.84-2.16" transform="translate(240 300)" style="fill:#231f20"/><path d="M-16.36-251.48a.16.16,0,0,1,.18-.13h2a.28.28,0,0,1,.27.13l3.32,5.59h.08l.63-5.6a.16.16,0,0,1,.18-.13h1.86c.1,0,.16.05.15.13l-1,8.64a.17.17,0,0,1-.18.13h-2a.29.29,0,0,1-.27-.13l-3.34-5.58h-.08l-.63,5.58a.16.16,0,0,1-.17.14h-1.86c-.1,0-.16,0-.15-.13Z" transform="translate(240 300)" style="fill:#231f20"/><path d="M-2-242.73a.13.13,0,0,1-.15-.13l.75-6.71c0-.06,0-.08-.09-.08H-4.3c-.1,0-.16,0-.15-.13l.19-1.71a.16.16,0,0,1,.18-.13H4.2c.1,0,.16,0,.15.13l-.19,1.71a.16.16,0,0,1-.18.13H1.15c-.07,0-.1,0-.11.07l-.75,6.72a.16.16,0,0,1-.18.13Z" transform="translate(240 300)" style="fill:#231f20"/><path d="M7.81-251.51a.17.17,0,0,1,.18-.13h2.09c.1,0,.16,0,.15.13l-.35,3.21c0,.05,0,.08.09.08h3.65c.07,0,.1,0,.11-.08l.36-3.2c0-.08.08-.13.17-.13h2.1c.09,0,.16,0,.14.13l-1,8.63a.17.17,0,0,1-.18.14H13.27c-.1,0-.16-.06-.15-.13l.37-3.3c0-.05,0-.08-.09-.08H9.75c-.07,0-.1,0-.11.08l-.37,3.3a.16.16,0,0,1-.18.13H7c-.1,0-.16,0-.15-.13Z" transform="translate(240 300)" style="fill:#231f20"/><path d="M20.76-251.52a.16.16,0,0,1,.18-.13H23c.1,0,.16.05.15.13l-.74,6.61s0,.08.09.08h4.94c.1,0,.16.06.15.13l-.2,1.82a.16.16,0,0,1-.18.13H20c-.1,0-.16-.05-.15-.13Z" transform="translate(240 300)" style="fill:#231f20"/><path d="M31.92-242.76c-.1,0-.16-.05-.15-.13l.38-3.42-2.73-5.22c0-.06,0-.13.13-.13h2.14a.23.23,0,0,1,.24.13l1.66,3.24h0L36-251.53a.29.29,0,0,1,.27-.14h2.07c.11,0,.16.07.1.13l-3.89,5.23-.38,3.41a.17.17,0,0,1-.18.14Z" transform="translate(240 300)" style="fill:#231f20"/><path d="M20-294.23a6.48,6.48,0,0,1-.11,1.15,5.77,5.77,0,0,1-5.51,4.78,5.66,5.66,0,0,1-1-.11,5.56,5.56,0,0,1-4.36-5.51,6.56,6.56,0,0,1,.11-1.31A5.84,5.84,0,0,1,14.78-300a4.92,4.92,0,0,1,.94.1A5.56,5.56,0,0,1,20-294.23" transform="translate(240 300)" style="fill:#231f20"/><path d="M15.62-260.71l3.2-24.38a1.55,1.55,0,0,0,0-.31,1.28,1.28,0,0,0-1.28-1.28H6l-.21,1.52h.52c1.07,0,1.31.53,1.16,1.68L4.66-261.29A9.77,9.77,0,0,0,4.55-260c0,2.67,1.25,3.62,4.72,3.62a34,34,0,0,0,8.13-1.1l.21-1.53h-.78c-1,0-1.37-.47-1.21-1.67" transform="translate(240 300)" style="fill:#231f20"/><path d="M42.24-281.9a4.5,4.5,0,0,1-4.83,4.61c-2.52,0-3.83-1.41-3.83-3.62a4.12,4.12,0,0,1,3-4.09,6.72,6.72,0,0,0-2-.37,3.9,3.9,0,0,0-4.2,3.73c0,1.57.56,3,4.36,5.77,3.47,2.49,6.61,4.78,6.61,10.28,0,5.23-4.46,9.18-12,9.18a16.59,16.59,0,0,1-7.66-1.42A6.56,6.56,0,0,1,18-263.49a4.4,4.4,0,0,1,4.52-4.36A3.78,3.78,0,0,1,26.61-264a4.12,4.12,0,0,1-2.84,4.09,4.48,4.48,0,0,0,2.89,1.11,3.27,3.27,0,0,0,3.41-3.31c0-2.47-1.86-4.37-3.88-5.66-3-1.91-6.19-5.6-6.19-8.92,0-7.1,5.39-10.86,13.63-10.86,4.4,0,8.61,2.17,8.61,5.67" transform="translate(240 300)" style="fill:#231f20"/><path d="M-94.11-281.48c0,.59-.21,2.08-.37,3.35l-2.26,17.52c-.14,1.14.29,1.57,1.11,1.57h.89l-.16,1.53a43.18,43.18,0,0,1-8.55,1.1c-3.41,0-4.56-1.63-4.3-3.67l2.78-21.77c.12-1-.44-1.57-1-1.57a2.71,2.71,0,0,0-1.26.31l-3.09,24c-.16,1.22-.79,1.68-2.47,1.68h-8.86l3.3-25.7c.19-1.43-.22-2.2-1.36-2.2h-.42l.16-1.47h10.33c1.4,0,1.64.49,1.89,1a15.7,15.7,0,0,1,7.24-2c3.87,0,6.57,1.66,6.4,6.25" transform="translate(240 300)" style="fill:#231f20"/><path d="M-191.53-281.48c0,.59-.28,2.65-.37,3.35l-2.26,17.52c-.14,1.14.29,1.57,1.1,1.57h.9l-.21,1.53a42.74,42.74,0,0,1-8.5,1.1c-3.41,0-4.62-1.63-4.35-3.67l2.83-21.77c.13-1-.44-1.57-1-1.57a2.71,2.71,0,0,0-1.26.31l-3.09,24c-.16,1.22-.84,1.68-2.52,1.68h-8.81l3.3-25.7c.19-1.43-.22-2.2-1.36-2.2h-.47l.21-1.47h10.33c1.4,0,1.59.49,1.84,1a15.65,15.65,0,0,1,7.23-2c3.88,0,6.63,1.66,6.46,6.25" transform="translate(240 300)" style="fill:#231f20"/><path d="M-216-299.16l-.21,1.78c-2,0-2.71.43-2.94,2.21l-4.25,33.72c-.2,1.63.64,2.31,2.31,2.31l-.21,1.73H-240l.26-1.73c1.49,0,2.68-.45,2.89-2.1L-232.6-295c.26-2.14-.73-2.44-2.31-2.36l.21-1.78Z" transform="translate(240 300)" style="fill:#231f20"/><path d="M-21.2-282.69a1.18,1.18,0,0,0-1.1-1.42,1.43,1.43,0,0,0-1.37,1.42L-26.4-261c-.08.7.26,1.37.95,1.37a1.64,1.64,0,0,0,1.52-1.47Zm10.59,4.61c0,4.45-1,11.2-2,13.9-2.57,6.78-7.7,7.77-13.43,7.77-7.12,0-10.86-3.2-10.86-9.44,0-5.7,1.37-13.17,3.62-16.68,2.64-4.12,7.1-4.78,11.38-4.78,7.85,0,11.33,3.13,11.33,9.23" transform="translate(240 300)" style="fill:#231f20"/><path d="M-133.21-283.27c.13-1-.33-1.36-1-1.36a1.43,1.43,0,0,0-1.41,1.41l-2.63,19.94c-.15,1.2.59,1.62,1.11,1.62a1.78,1.78,0,0,0,1.41-.89Zm11.59-3.51-3.51,26.17c-.15,1.12.31,1.57,1,1.57h1.1l-.21,1.63a51.94,51.94,0,0,1-8.34.89c-2.34,0-4.15-.84-4.41-3a7.87,7.87,0,0,1-6,2.62c-4.48,0-7-2.36-7-8.49s1.46-14.06,3.72-17.63c2.08-3.28,5.87-4.3,10.91-4.3,3.8,0,7.18,1.05,9.44,1.05a7.59,7.59,0,0,0,3.25-.47m41.44,24.23a1.71,1.71,0,0,1-1.36.89,1.26,1.26,0,0,1-1.16-1.62l2.63-19.94a1.43,1.43,0,0,1,1.41-1.41c.72,0,1.17.37,1,1.36Zm10.91-23.76c-2.26,0-5.64-1.05-9.44-1.05-5,0-8.78,1-10.86,4.3-2.25,3.57-3.77,11.47-3.77,17.63s2.49,8.49,7,8.49a7.87,7.87,0,0,0,6-2.62c.26,2.2,2.07,3,4.41,3a52.1,52.1,0,0,0,8.34-.89l.21-1.63h-1.1c-.69,0-1.15-.45-1-1.57L-66-286.78a7.59,7.59,0,0,1-3.25.47m20.19,4.41c.16-1.2-.26-1.68-1.2-1.68a2.18,2.18,0,0,0-1.26.63l-2.68,22.13a1.07,1.07,0,0,0,.95.53c1.21,0,1.5-.6,1.62-1.58ZM-38-278.76c0,4.32-1.2,12.3-2.83,16-1.82,4.11-5,6.35-9.49,6.35a9.26,9.26,0,0,1-4.25-1l-1.16,8.76c-.2,1.52-.52,1.78-2,1.78h-9.39l4.67-36.66c.12-1-.13-1.68-1.31-1.68h-.53l.21-1.57h11c.87,0,1.49.23,1.67,1a9.64,9.64,0,0,1,5.15-1.58c4.53,0,8.28,2,8.28,8.55" transform="translate(240 300)" style="fill:#231f20"/><path d="M-147.74-294.23a5.65,5.65,0,0,1-.1,1.15,5.77,5.77,0,0,1-5.51,4.78,5.77,5.77,0,0,1-1-.11,5.56,5.56,0,0,1-4.35-5.51,6.56,6.56,0,0,1,.11-1.31A5.84,5.84,0,0,1-153-300a5.09,5.09,0,0,1,.94.1,5.54,5.54,0,0,1,4.3,5.67" transform="translate(240 300)" style="fill:#231f20"/><path d="M-152.14-260.71l3.2-24.38a1.55,1.55,0,0,0,0-.31,1.28,1.28,0,0,0-1.28-1.28h-11.56l-.21,1.52h.52c1.06,0,1.3.53,1.16,1.68l-2.84,22.19a11.8,11.8,0,0,0-.1,1.26c0,2.67,1.25,3.62,4.72,3.62a34,34,0,0,0,8.13-1.1l.21-1.53h-.79c-1,0-1.36-.47-1.2-1.67" transform="translate(240 300)" style="fill:#231f20"/><path d="M-177.79-263.44c-.18,1.36-.82,1.73-1.63,1.73s-1-.65-.89-1.78l2.41-19.25c.17-1.32.79-1.94,1.52-1.94a2.24,2.24,0,0,1,1.32.52Zm15.38-33.7a.2.2,0,0,0,0-.07v-.07h0s0-.08,0-.13a1.28,1.28,0,0,0-1.28-1.28h-11.46l-.15,1.52h.68c.74,0,1,.78.84,2.1l-.95,8.08a13.56,13.56,0,0,0-3-.32c-4.3,0-8,1.29-9.76,4.62-2.37,4.43-3.51,11.63-3.61,17.31s2.57,8.44,6.55,8.44a8,8,0,0,0,6.4-2.73c.26,2.31,1.7,3.14,4.25,3.26a32.82,32.82,0,0,0,8.6-1.1l.21-1.53h-.37c-.81,0-1.67-.37-1.46-2Z" transform="translate(240 300)" style="fill:#231f20"/><path d="M5.47-297.26h0a.66.66,0,0,0,0-.14,1.28,1.28,0,0,0-1.28-1.28H-7.3l-.21,1.52h.42c1.06,0,1.3.68,1.15,1.84l-4.35,34A9.77,9.77,0,0,0-10.4-260c0,2.67,1.25,3.62,4.72,3.62a34,34,0,0,0,8.13-1.1L2.61-259H1.88c-1,0-1.37-.47-1.21-1.67Z" transform="translate(240 300)" style="fill:#231f20"/></g></svg>